<?xml version="1.0" encoding="utf-8"?>
<!-- Generator: Adobe Illustrator 24.1.3, SVG Export Plug-In . SVG Version: 6.00 Build 0)  -->
<svg version="1.1" id="Layer_1" xmlns="http://www.w3.org/2000/svg" xmlns:xlink="http://www.w3.org/1999/xlink" x="0px" y="0px"
	 viewBox="0 0 550 424" style="enable-background:new 0 0 550 424;" xml:space="preserve">
<style type="text/css">
	.st0{fill:#36363B;}
</style>
<path id="XMLID_1_" class="st0" d="M198.18,77.49c-18.87,32.35-79.75,42.19-100.95,58.78c-19.4,15.19-29.74,50.32-28.69,78.32
	c1.04,28,22.31,55.85,50.23,58.19c12.15,1.01,24.3-2.58,36.47-1.75c38.93,2.66,60.62,46.32,94.85,65.05
	c39.45,21.58,89.73,6.32,126.23-19.94c23.21-16.7,44.11-38.85,51.5-66.48c7.39-27.62-2.2-61.08-27.37-74.65
	c-22.68-12.23-57.22-10.43-66.06-34.63c-6.18-16.92,5.87-34.61,8.58-52.42c4.24-27.91-16.99-55.68-43.9-64.21
	c-26.91-8.53-51.56-10-71.39,10.09C218.44,43.21,204.82,66.11,198.18,77.49z"/>
</svg>
