<?xml version="1.0" encoding="utf-8"?>
<!-- Generator: Adobe Illustrator 24.1.3, SVG Export Plug-In . SVG Version: 6.00 Build 0)  -->
<svg version="1.1" id="Layer_1" xmlns="http://www.w3.org/2000/svg" xmlns:xlink="http://www.w3.org/1999/xlink" x="0px" y="0px"
	 viewBox="0 0 1366 768" style="enable-background:new 0 0 1366 768;" xml:space="preserve">
<style type="text/css">
	.st0{fill:#2D2D2D;}
</style>
<g>
	<path class="st0" d="M527.57,322.95c1.46,2.09,3.21,4.82,5.19,7.37c3.03,3.89,3.07,5.97-0.36,9.54c-3.23,3.36-6.52,6.67-9.89,9.9
		c-3.28,3.15-5.69,3.17-9.24,0.44c-2.48-1.9-5.02-3.72-7.33-5.43c-3.91,1.62-7.29,2.94-10.6,4.43c-3.23,1.45-3.63,4.5-3.92,7.55
		c-0.75,7.81-1.6,8.58-9.54,8.62c-3.83,0.02-7.68,0.14-11.5-0.06c-5.02-0.26-7.03-2.11-7.05-7.09c-0.02-5.77-1.9-9.57-8.05-10.69
		c-2.03-0.37-3.87-1.78-6.36-2.99c-2.24,1.73-4.59,3.51-6.89,5.35c-3.78,3.02-6.31,3.1-9.66-0.12c-3.61-3.46-7.03-7.11-10.56-10.65
		c-2.73-2.74-2.88-5.43-0.09-8.26c1.05-1.06,1.78-2.43,2.83-3.49c2.75-2.82,2.1-5.41,0.93-9.01c-2.46-7.6-7.28-10.47-14.78-10.23
		c-0.89,0.03-1.8-0.71-3.37-1.37c-0.57-8.31-1.95-16.74,1.18-25.5c3.29-0.4,6.23-0.75,9.16-1.12c4.39-0.55,5.25-1.54,5.76-7.21
		c-1.45-0.47-3.06-1.44-4.68-1.45c-21.5-0.09-43-0.05-64.51-0.02c-0.48,0-0.96,0.23-2.32,0.59c-0.32,1.45-1.02,3.25-1.07,5.08
		c-0.15,4.66,0.09,9.34-0.01,14c-0.09,4.38-1.3,5.93-5.61,6.01c-11.33,0.22-22.67,0.22-34,0.03c-4.15-0.07-5.43-2.05-5.45-7.3
		c-0.04-17.5-0.02-35.01-0.02-52.51c0-5,0.06-10,0.02-15c-0.06-7.6,2.33-14.35,8.39-18.95c7.57-5.74,8.99-14.54,12.31-22.39
		c2.78-6.57,4.94-13.4,7.56-20.05c4.39-11.15,8.77-14.18,20.68-14.23c15.67-0.07,31.34-0.01,47.01-0.01c17.5,0,35-0.05,52.51,0.02
		c12.52,0.05,17.19,3.59,21.42,15.4c3.93,10.95,7.96,21.86,12.25,32.67c1.07,2.7,3,5.23,5.06,7.34c5.74,5.87,7.91,12.95,7.92,20.91
		c0,4.83-0.33,9.7,0.13,14.49c0.21,2.17,1.51,5.06,3.22,6c1.29,0.72,4.17-0.83,6.04-1.91c2.27-1.31,4.22-3.19,6.6-5.05
		c1.39,0.65,2.96,0.97,3.95,1.9c4.24,4,8.39,8.1,12.42,12.31c2.3,2.41,2.1,5.11,0.02,7.67c-1.97,2.44-3.95,4.87-5.98,7.37
		c1.84,4.36,3.56,8.44,5.63,13.35c3.79,0.64,7.98,1.34,12.63,2.12c0.73,1.39,2.19,2.95,2.26,4.56c0.25,6.14,0.34,12.33-0.18,18.44
		c-0.12,1.46-2.61,3.14-4.36,3.91c-1.74,0.77-3.94,0.43-5.91,0.73c-2.84,0.43-4.86,1.9-5.9,4.73
		C530.46,316.49,529.19,319.18,527.57,322.95z M417.76,250.76c-1.43-0.14-2.58-0.35-3.73-0.34c-11.16,0.04-22.33,0.12-33.49,0.19
		c-5.25,0.03-8.12-2.63-8.21-7.78c-0.08-4.67-0.1-9.34,0-14c0.1-4.37,2.8-7.1,7.17-7.31c2.33-0.11,4.66,0.02,7,0.01
		c13.17-0.03,26.33-0.11,39.5-0.07c5.75,0.02,8.15,2.61,8.11,8.28c-0.01,1.64,0,3.28,0,4.72c4.6,3.22,8.74,6.26,13.05,9.03
		c0.97,0.62,2.72,0.78,3.79,0.35c3.82-1.54,7.5-3.43,11.49-5.31c0.56-4.24,1.11-8.47,1.72-13.09c9.6-3.11,18.93-1.63,28.19-0.47
		c2.77-11.24-4.72-21.1-15.8-21.04c-2.33,0.01-4.67,0.01-7,0.01c-46.17,0-92.34-0.03-138.51,0.04c-2.41,0-5.35,0.04-7.14,1.32
		c-6.3,4.49-10.74,10.06-10.38,18.69c0.46,11.15,0.08,22.33,0.12,33.5c0.01,1.62,0.31,3.24,0.54,5.48c2.31,0.3,4.37,0.8,6.43,0.81
		c32.67,0.08,65.33,0.12,98,0.08c1.71,0,3.42-0.82,5.39-1.33C421.65,258.1,419.8,254.62,417.76,250.76z M329.65,194.96
		c2.59,0.53,4.29,1.19,5.99,1.19c46.12,0.05,92.23,0.05,138.35-0.01c1.66,0,3.32-0.69,5.79-1.23c-1.6-4.08-2.95-7.38-4.2-10.72
		c-2.92-7.77-5.8-15.55-8.7-23.32c-1.29-3.47-3.93-5.37-7.43-5.91c-2.78-0.43-5.63-0.53-8.45-0.53c-30.13,0.02-60.27,0.09-90.4,0.16
		c-3.16,0.01-6.33-0.14-9.47,0.14c-4.28,0.37-7.42,2.3-8.95,6.73c-1.89,5.49-4.29,10.8-6.33,16.24
		C333.81,183.08,331.95,188.53,329.65,194.96z M528.58,287.07c-0.76-1.07-1.57-1.94-2.06-2.97c-2.4-5.09-4.81-10.19-7.03-15.36
		c-1.22-2.84-0.55-5.46,1.46-7.88c1.65-1.99,3-4.23,4.91-6.98c-3.14-2.75-5.86-5.14-8.57-7.51c-1.97,1.38-3.1,2.07-4.11,2.9
		c-5.47,4.53-7.73,4.71-13.87,1.23c-1.71-0.97-3.51-1.92-5.39-2.47c-7.49-2.19-8.88-3.65-9.83-11.67c-0.37-3.17-1.8-4.91-5.06-4.95
		c-2.13-0.02-4.26,0-7.09,0c-0.49,2.46-1.09,4.46-1.26,6.49c-0.44,5.26-2.43,7.83-7.25,9.52c-3.26,1.15-6.53,2.39-9.59,3.99
		c-4.22,2.21-7.85,2.04-11.4-1.33c-1.48-1.4-3.42-2.32-5.89-3.93c-2.63,2.71-4.89,5.03-7.52,7.74c1.43,2.34,2.35,4.26,3.64,5.86
		c3.64,4.5,3.84,6.67,1.23,11.76c-1.42,2.78-2.63,5.71-3.65,8.66c-1.96,5.65-4.04,7.27-10.09,7.74c-1.72,0.13-3.4,0.76-4.81,1.09
		c-2.41,9.38-1.46,10.87,7.21,12.55c4.02,0.78,6.15,3.56,7.52,7.22c1.21,3.24,2.53,6.47,4.06,9.57c2.23,4.51,2.03,7.07-1.2,10.94
		c-1.15,1.38-2.22,2.84-3.97,5.1c2.54,2.98,5,5.86,7.75,9.07c2.75-2.03,4.99-3.44,6.94-5.18c2.93-2.62,5.87-2.59,9.17-0.84
		c2.63,1.39,5.4,2.5,8.09,3.76c2.98,1.4,5.95,2.83,8.96,4.27c0.28,2.4,0.39,4.39,0.77,6.32c0.37,1.87,1.03,3.69,1.6,5.69
		c3.46,0,6.39,0,10.08,0c0.62-2.22,1.61-4.33,1.72-6.49c0.22-4.26,2.38-6.67,6.11-8.24c4.27-1.8,8.45-3.83,12.68-5.73
		c2.8-1.25,5.43-1.27,7.89,0.93c1.95,1.75,4.06,3.33,6.76,5.51c3.01-3.13,5.77-6,8.68-9.04c-1.95-2.36-3.18-4.15-4.7-5.63
		c-3-2.92-2.96-6.06-1.21-9.55c1.4-2.81,2.86-5.62,3.9-8.57c1.91-5.44,4.62-9.47,11.23-9.44c3.53,0.02,5.47-2.16,5.15-5.9
		c-0.17-1.95-0.38-3.89-0.63-6.4C536.11,288.3,532.57,287.72,528.58,287.07z M425.62,230.63c-1.55-0.62-2.16-1.07-2.77-1.07
		c-12.62-0.08-25.24-0.18-37.85-0.11c-2.86,0.02-4.4,1.88-4.83,4.76c-0.87,5.88,1.19,8.52,7.15,8.56
		c10.8,0.08,21.59,0.06,32.39-0.01c1.75-0.01,3.5-0.5,5.91-0.87C425.62,237.92,425.62,234.31,425.62,230.63z M340.99,271.39
		c-8.8,0.9-18.17-1.43-27.48,1.48c0,4.3-0.04,7.61,0.01,10.92c0.06,4.37,1.6,5.89,6.15,5.91c4.83,0.02,9.65-0.11,14.48-0.15
		c2.44-0.02,4.89,0,7.05,0C343.85,284.46,343.8,275.81,340.99,271.39z"/>
	<path class="st0" d="M341.39,221.01c8.62-0.05,16.54,7.01,16.55,14.76c0.02,7.63-8.1,14.91-16.54,14.85
		c-8.81-0.06-15.6-6.5-15.63-14.8C325.74,227.51,332.55,221.06,341.39,221.01z M341.91,242.76c3.83-0.09,7.95-3.64,8.02-6.89
		c0.07-3.47-4.16-7.07-8.29-7.05c-4.64,0.01-8.08,3.04-8.02,7.05C333.68,239.77,337.41,242.87,341.91,242.76z"/>
	<path class="st0" d="M476.91,336.34c-22.13,0.46-41.84-19.49-41.39-42.42c0.44-22.58,19.63-41.45,42.32-41.13
		c22.68,0.32,41.87,19.72,41.32,42.6C518.61,318.36,499.97,336.6,476.91,336.34z M511.31,295.05c0.92-18.31-15.71-34.41-33.47-34.45
		c-18.59-0.05-34.29,15.23-34.59,33.52c-0.3,18.04,15.16,34.7,33.95,34.57C496.09,328.54,511.13,313.96,511.31,295.05z"/>
	<path class="st0" d="M477.2,315.86c-11.17-0.04-21.43-9.93-21.02-21.09c0.45-12.51,9.3-21.31,21.36-21.19
		c12.27,0.12,21.01,9.53,21.03,21.52C498.59,306.16,488.43,315.89,477.2,315.86z M490.72,294.58c-0.01-6.57-6.6-13.2-13.18-13.28
		c-6.76-0.08-13.58,6.7-13.54,13.44c0.05,6.64,6.55,13.18,13.19,13.24C483.99,308.06,490.74,301.38,490.72,294.58z"/>
</g>
</svg>
