<?xml version="1.0" encoding="utf-8"?>
<!-- Generator: Adobe Illustrator 24.1.3, SVG Export Plug-In . SVG Version: 6.00 Build 0)  -->
<svg version="1.1" id="Layer_1" xmlns="http://www.w3.org/2000/svg" xmlns:xlink="http://www.w3.org/1999/xlink" x="0px" y="0px"
	 viewBox="0 0 150.07 123.46" style="enable-background:new 0 0 150.07 123.46;" xml:space="preserve">
<style type="text/css">
	.st0{fill:#333333;}
</style>
<g>
	<path class="st0" d="M141.43,116.35c-44.22,0-87.99,0-132.1,0c-0.24-2.52-0.65-4.8-0.65-7.08C8.64,79.16,8.63,49.05,8.66,18.94
		C8.68,9.57,11.2,7.13,20.78,7.13c36.13-0.02,72.26-0.02,108.4,0c9.63,0.01,12.22,2.45,12.23,11.71c0.04,30.11,0.02,60.22,0,90.33
		C141.4,111.27,141.46,113.58,141.43,116.35z M135.65,47.82c-40.82,0-80.9,0-121,0c0,21.3,0,42.11,0,62.93c40.58,0,80.66,0,121,0
		C135.65,89.62,135.65,68.99,135.65,47.82z M14.61,41.33c40.69,0,80.74,0,120.57,0c0-9.71,0-18.91,0-28.11
		c-40.54,0-80.33,0-120.57,0C14.61,22.83,14.61,31.86,14.61,41.33z"/>
	<path class="st0" d="M23.46,75.72c0-6.37,0-12.5,0-19.03c20.89,0,41.47,0,62.52,0c0,6.23,0,12.37,0,19.03
		C65.48,75.72,44.91,75.72,23.46,75.72z M80.72,62.27c-17.73,0-34.69,0-51.6,0c0,2.98,0,5.48,0,8.01c17.46,0,34.42,0,51.6,0
		C80.72,67.45,80.72,65.11,80.72,62.27z"/>
	<path class="st0" d="M86.11,82.83c0,6.43,0,12.56,0,19.07c-20.92,0-41.5,0-62.54,0c0-6.29,0-12.42,0-19.07
		C44.12,82.83,64.7,82.83,86.11,82.83z M80.72,88.3c-17.74,0-34.71,0-51.6,0c0,2.99,0,5.49,0,8c17.47,0,34.43,0,51.6,0
		C80.72,93.47,80.72,91.13,80.72,88.3z"/>
	<path class="st0" d="M126.58,56.78c0,15.2,0,29.99,0,45.14c-10.35,0-20.33,0-30.73,0c0-15.06,0-29.85,0-45.14
		C105.89,56.78,115.87,56.78,126.58,56.78z M101.18,96.26c7.12,0,13.46,0,19.76,0c0-11.68,0-22.84,0-33.96c-6.87,0-13.21,0-19.76,0
		C101.18,73.81,101.18,84.79,101.18,96.26z"/>
	<path class="st0" d="M58.1,35.18c0-5.58,0-10.58,0-16.04c22.77,0,45.28,0,68.32,0c0,5.11,0,10.28,0,16.04
		C104,35.18,81.32,35.18,58.1,35.18z M121.04,24.57c-19.64,0-38.35,0-57.62,0c0.24,2.13-0.17,3.82,0,5.31c19.38,0,38.68,0,57.62,0
		C121.04,27.95,121.04,26.41,121.04,24.57z"/>
	<circle class="st0" cx="41.61" cy="27.11" r="5.37"/>
	<circle class="st0" cx="25.93" cy="27.11" r="5.37"/>
</g>
</svg>
