<?xml version="1.0" encoding="utf-8"?>
<!-- Generator: Adobe Illustrator 24.1.3, SVG Export Plug-In . SVG Version: 6.00 Build 0)  -->
<svg version="1.1" id="Layer_1" xmlns="http://www.w3.org/2000/svg" xmlns:xlink="http://www.w3.org/1999/xlink" x="0px" y="0px"
	 viewBox="0 0 504.01 504.13" style="enable-background:new 0 0 504.01 504.13;" xml:space="preserve">
<style type="text/css">
	.st0{fill:#262626;}
</style>
<g>
	<path class="st0" d="M12.42,400.96c0-120.38,0-240.75,0-361.13c3.95-17.88,17.61-27.66,39.27-27.4
		c55.2,0.68,110.41,0.23,165.61,0.23c80,0,160-0.02,240,0.01c20.21,0.01,34.21,13.24,34.22,32.86c0.09,116.47,0.09,232.93-0.1,349.4
		c-0.01,4.97-1.23,10.34-3.35,14.84c-6.11,12.95-17.25,18.19-31.16,18.19c-42.42,0.02-84.83,0.01-127.25,0.01c-1.8,0-3.59,0-5.39,0
		c0,5.63,0,10.54,0,15.87c1.97,0,3.66-0.01,5.34,0c9.51,0.05,19.04-0.23,28.53,0.23c16.74,0.81,30.9,11.75,35.42,27.84
		c1.78,6.34,1.73,13.19,2.51,19.81c-96.07,0-192.14,0-288.22,0c0.08-2.02,0.2-4.03,0.25-6.05c0.44-20.42,11.55-35.87,30.28-40.35
		c7.14-1.71,14.84-1.19,22.29-1.43c6.32-0.2,12.66-0.04,19.02-0.04c0-5.59,0-10.5,0-15.87c-2.1,0-3.93,0-5.76,0
		c-42.06,0-84.13,0.15-126.19-0.17c-6.03-0.05-12.43-1.47-17.99-3.82C19.85,419.8,15.19,410.91,12.42,400.96z M172.13,347.67
		c0-2.34,0-4.17,0-6.01c0-23.23-0.08-46.46,0.08-69.69c0.02-3.5,0.67-7.15,1.8-10.46c11.18-32.53,22.52-65,33.82-97.49
		c3.43-9.87,11.12-15.76,20.39-15.61c9.21,0.14,16.68,5.92,20.01,15.53c11.39,32.79,22.81,65.56,34.09,98.39
		c0.99,2.88,1.49,6.06,1.51,9.11c0.14,18.4,0.06,36.8,0.08,55.19c0,1.44,0.15,2.88,0.27,5.24c1.61-2.01,2.6-3.19,3.53-4.4
		c36.13-46.94,72.25-93.89,108.38-140.83c9.79-12.72,19.48-25.53,29.41-38.14c8.1-10.27,21.28-10.8,29.51-1.38
		c3.67,4.2,4.72,9.24,4.71,14.75c-0.07,60.03-0.04,120.06-0.04,180.08c0,1.82,0,3.65,0,5.54c5.56,0,10.57,0,15.56,0
		c0-95.76,0-191.1,0-286.64c-148.98,0-297.67,0-446.54,0c0,95.73,0,191.2,0,286.77c10.54,0,20.76,0,31.48,0
		c0-2.87-0.04-5.49,0.01-8.1c0.19-11.68-0.77-23.52,0.85-35c3.97-28.21,9.11-56.26,13.87-84.36c0.54-3.17,0.06-5.43-2.48-7.79
		c-12.23-11.38-20.48-25.28-25.75-41.14c-4.13-12.43-2.9-24.27,4.23-34.87c6.13-9.12,13.25-17.67,20.69-25.78
		C81.3,100.02,91.76,90.2,101.81,80c4.16-4.22,9.2-3.98,13.37,0.54c5.59,6.06,11.38,11.94,17.08,17.89
		c9.26,9.67,19.14,18.83,27.61,29.15c9.22,11.24,15.03,24.17,11.05,39.39c-4.61,17.6-13.45,32.8-26.74,45.25
		c-2.47,2.32-3.23,4.42-2.63,7.67c1.89,10.26,3.5,20.57,5.23,30.86c5.18,30.85,11.76,61.57,9.53,93.18
		c-0.08,1.17,0.24,2.38,0.39,3.74C161.78,347.67,166.56,347.67,172.13,347.67z M29.1,364.29c-0.29,0.53-0.56,0.79-0.57,1.06
		c-0.06,8.88-0.12,17.77-0.12,26.65c-0.01,14.05,5.8,19.86,19.88,19.87c135.8,0,271.61,0,407.41-0.01c2.02,0,4.06-0.06,6.05-0.36
		c7.15-1.06,12.94-5.91,13.35-13c0.65-11.29,0.17-22.64,0.17-34.21C326.31,364.29,177.63,364.29,29.1,364.29z M443.26,220.3
		c0.18-1.14,0.36-1.73,0.36-2.32c0.02-18.86,0.07-37.72-0.05-56.58c-0.01-1.47-1.2-2.94-1.83-4.41c-1.59,0.96-3.65,1.57-4.71,2.94
		c-47.4,61.46-94.71,122.98-142.02,184.51c-0.69,0.89-1.18,1.94-2.07,3.43c16.79,0,32.84,0.07,48.88-0.12
		c1.49-0.02,3.34-1.46,4.39-2.75c8.96-10.99,17.78-22.1,26.64-33.18c2.48-3.11,5.67-4.52,9.5-3.2c3.84,1.32,5.43,4.38,5.4,8.39
		c-0.04,6.39-0.01,12.78-0.01,19.17c0,3.81,0,7.63,0,11.43c18.98,0,37.17,0,55.63,0c0-5.17,0-10.06,0-15.6c-5.24,0-10.28,0-15.3,0
		c0-5.68,0-10.7,0-16.19c5.32,0,10.23,0,15.32,0c0-5.39,0-10.29,0-15.77c-10.6,0-20.94,0-31.32,0c0-5.61,0-10.64,0-16.25
		c10.71,0,21.05,0,31.23,0c0-5.51,0-10.42,0-15.71c-5.28,0-10.21,0-15.34,0c0-5.44,0-10.47,0-16.07c5.33,0,10.37,0,15.4,0
		c0-5.48,0-10.39,0-15.83c-10.64,0-21,0-31.26,0c0-5.59,0-10.62,0-15.89C422.61,220.3,432.73,220.3,443.26,220.3z M475.26,44.27
		c-0.72-10.24-7.12-15.59-18.47-15.59c-136.58-0.01-273.16-0.01-409.75,0c-1.4,0-2.82-0.02-4.2,0.14c-8.18,0.97-13.71,7-14.11,15.45
		C177.58,44.27,326.41,44.27,475.26,44.27z M126.32,475.51c83.96,0,167.58,0,251.34,0c-0.09-0.68-0.07-1.15-0.22-1.55
		c-0.27-0.72-0.59-1.44-0.99-2.1c-5.19-8.51-12.88-12.03-22.73-12.02c-67.79,0.08-135.58,0.04-203.36,0.05
		c-1.4,0-2.81-0.01-4.21,0.09C136.94,460.65,128.78,466.96,126.32,475.51z M77.89,299.6c20.6,0,40.56,0,60.77,0
		c-0.96-5.39-1.85-10.37-2.76-15.47c-3.17,0-5.8,0.01-8.44,0c-6.54-0.02-13.09,0.11-19.62-0.13c-4.06-0.15-6.68-2.6-7.35-6.59
		c-0.68-4.03,1.14-7.05,4.92-8.51c1.68-0.65,3.65-0.75,5.49-0.77c7.29-0.08,14.58-0.03,22.45-0.03c-2.7-16.18-5.32-31.86-7.94-47.52
		c-11.72,0-22.89,0-34.34,0C86.68,246.93,82.3,273.13,77.89,299.6z M108.9,97.05c-10.59,10.16-20.57,19.11-29.78,28.8
		c-5.63,5.92-10.49,12.7-14.9,19.61c-2.34,3.67-2.99,8.42-4.41,12.68c0.47,0.26,0.94,0.52,1.4,0.78c1.61-0.83,3.24-1.63,4.84-2.48
		c10.25-5.46,20.73-5.82,30.75-0.02c7.87,4.56,14.89,4.51,22.75,0.01c10.04-5.74,20.52-5.35,30.79,0.03
		c1.6,0.84,3.23,1.64,5.01,2.54c0.8-5.99-1.04-13.37-7.02-20.06C135.7,124.8,122.39,111.29,108.9,97.05z M265.75,263.43
		c-3.76-10.89-7.44-21.77-11.38-32.56c-0.42-1.16-2.39-2.47-3.65-2.49c-15.1-0.17-30.2-0.16-45.3-0.02c-1.22,0.01-3.17,1-3.54,1.99
		c-4.03,11.05-7.81,22.19-11.59,33.13c9.16,5.74,18.27,5.14,26.92,0.54c7.44-3.95,14.05-4.02,21.53-0.04
		C247.36,268.55,256.5,269.36,265.75,263.43z M65.12,174.32c4.92,11.23,11.24,20.19,19.73,27.49c1.58,1.36,4.04,2.37,6.11,2.41
		c11.52,0.23,23.04,0.13,34.56,0.08c1.35-0.01,3.1,0.11,3.99-0.63c9.38-7.86,16.65-17.31,21.45-28.62
		c-14.94-8.09-14.91-8.03-29.61-1.53c-9.73,4.29-19.26,3.65-28.79-1.12c-3.64-1.82-7.96-3.87-11.72-3.47
		C75.67,169.49,70.73,172.28,65.12,174.32z M236.38,280.43c0,22.89,0,44.96,0,67.03c10.62,0,20.94,0,31.17,0
		c0-22.43,0-44.44,0-67.03C257.04,284.97,246.86,284.92,236.38,280.43z M219.86,280.25c-10.62,4.91-20.92,4.55-31.37,0.29
		c0,22.73,0,44.77,0,66.97c10.58,0,20.89,0,31.37,0C219.86,325.21,219.86,303.29,219.86,280.25z M139.81,316.41
		c-21.23,0-42.14,0-63.23,0c0,10.54,0,20.73,0,31.13c21.21,0,42.13,0,63.23,0C139.81,337.01,139.81,326.82,139.81,316.41z
		 M307.67,428.3c-37.4,0-74.28,0-111.3,0c0,5.24,0,10.14,0,15.12c37.28,0,74.26,0,111.3,0C307.67,438.21,307.67,433.42,307.67,428.3
		z M247.58,211.99c-0.47-1.7-0.73-2.88-1.12-4.02c-4.41-12.79-8.72-25.62-13.4-38.31c-0.72-1.96-2.95-4.23-4.87-4.69
		c-2.97-0.71-4.4,1.89-5.35,4.67c-4.41,12.96-8.98,25.86-13.45,38.79c-0.37,1.07-0.47,2.24-0.74,3.57
		C221.66,211.99,234.24,211.99,247.58,211.99z M371.49,339.31c-2.45,3.12-4.3,5.49-6.55,8.35c2.74,0,4.53,0,6.55,0
		C371.49,345.1,371.49,342.74,371.49,339.31z"/>
	<path class="st0" d="M451.33,76.83c0,15.84,0,31.5,0,47.34c-5.33,0-10.39,0-15.86,0c0-10.58,0-20.82,0-31.6
		c-26.67,0-52.93,0-79.44,0c0-5.48,0-10.41,0-15.74C387.7,76.83,419.38,76.83,451.33,76.83z"/>
	<path class="st0" d="M339.68,76.82c0,5.27,0,10.19,0,15.4c-5.26,0-10.28,0-15.56,0c0-5.17,0-10.09,0-15.4
		C329.19,76.82,334.21,76.82,339.68,76.82z"/>
	<path class="st0" d="M267.8,380.21c0,5.27,0,10.2,0,15.48c-10.47,0-20.79,0-31.45,0c0-5.09,0-10.12,0-15.48
		C246.63,380.21,256.95,380.21,267.8,380.21z"/>
	<path class="st0" d="M204.39,380.19c5.27,0,10.33,0,15.57,0c0,5.25,0,10.19,0,15.48c-5.2,0-10.23,0-15.57,0
		C204.39,390.48,204.39,385.44,204.39,380.19z"/>
	<path class="st0" d="M284.03,395.63c0-5.3,0-10.23,0-15.46c5.27,0,10.33,0,15.61,0c0,5.19,0,10.13,0,15.46
		C294.53,395.63,289.51,395.63,284.03,395.63z"/>
</g>
</svg>
