<?xml version="1.0" encoding="utf-8"?>
<!-- Generator: Adobe Illustrator 24.1.3, SVG Export Plug-In . SVG Version: 6.00 Build 0)  -->
<svg version="1.1" id="Layer_1" xmlns="http://www.w3.org/2000/svg" xmlns:xlink="http://www.w3.org/1999/xlink" x="0px" y="0px"
	 viewBox="0 0 150 150" style="enable-background:new 0 0 150 150;" xml:space="preserve">
<style type="text/css">
	.st0{fill:none;stroke:#000000;stroke-width:2;stroke-linecap:round;stroke-linejoin:round;stroke-miterlimit:10;}
</style>
<g>
	<path class="st0" d="M92.6,146.58c0-6.6,0-13.2,0-19.61c30.85-4.17,31.6-5.04,31.6-35.87c5.33-2.97,10.75-5.99,17.08-9.52
		c-2.67-4.45-5.23-8.08-7.14-12.04c-3.72-7.71-8-14.89-10.35-23.55C117.22,21.8,96.93,4.76,70.87,3.5
		C44.69,2.23,25.03,16.41,14.69,38.01c-7.6,15.89-8.47,33.85,0.53,47.93c12.31,19.25,15.03,39.13,14.18,60.63"/>
	<path class="st0" d="M75.81,32.05c-4.61,15.14-9.22,30.28-13.82,45.42"/>
	<path class="st0" d="M50.14,37.97c-5.29,4.91-10.58,9.81-17.02,15.8c6.45,5.98,11.74,10.89,17.02,15.8"/>
	<path class="st0" d="M85.69,37.97c5.66,5.19,11.33,10.38,17.24,15.8c-5.91,5.41-11.57,10.61-17.24,15.8"/>
	<path class="st0" d="M91.16,126.97c-4.59-0.5-9.18-1-13.78-1.51"/>
</g>
</svg>
