<?xml version="1.0" encoding="utf-8"?>
<!-- Generator: Adobe Illustrator 24.1.3, SVG Export Plug-In . SVG Version: 6.00 Build 0)  -->
<svg version="1.1" id="Layer_1" xmlns="http://www.w3.org/2000/svg" xmlns:xlink="http://www.w3.org/1999/xlink" x="0px" y="0px"
	 viewBox="0 0 229.41 238.85" style="enable-background:new 0 0 229.41 238.85;" xml:space="preserve">
<style type="text/css">
	.st0{fill:#232323;}
</style>
<g>
	<path class="st0" d="M48.37,21.05c0,2.04,0,3.52,0,5c0,19.24-0.01,38.49,0,57.73c0.01,6.93,1.23,8.18,8.01,8.19
		c28.99,0.01,57.98,0.02,86.97,0c7.59,0,10.98-3.42,10.98-10.95c0.01-18.37,0-36.74,0-55.11c0-1.47,0-2.94,0-4.83
		c5.33,0,10.29-0.09,15.24,0.08c0.92,0.03,1.96,0.98,2.67,1.76c11.82,12.73,23.63,25.46,35.32,38.3c0.96,1.05,1.57,2.84,1.57,4.29
		c0.08,46.36,0.08,92.72,0.04,139.08c-0.01,7.99-5.17,13.19-13.15,13.2c-54.23,0.04-108.46,0.04-162.69,0
		c-8-0.01-13.11-5.16-13.12-13.2c-0.04-56.73-0.04-113.46,0-170.19c0-8.25,5.1-13.24,13.37-13.33
		C38.33,21.01,43.07,21.05,48.37,21.05z M116.23,198.8c19.86,0,39.73,0.01,59.59-0.01c6.11-0.01,8.49-2.31,8.49-8.31
		c0.03-23.61,0.02-47.22,0-70.84c-0.01-6.1-2.33-8.43-8.36-8.43c-39.73-0.01-79.46-0.01-119.18,0c-6.2,0-8.4,2.15-8.4,8.29
		c-0.02,23.61-0.02,47.22,0,70.84c0,6.32,2.2,8.45,8.64,8.45C76.75,198.81,96.49,198.8,116.23,198.8z"/>
	<path class="st0" d="M102.18,82.05c-7.49,0-14.99,0.12-22.48-0.07c-2.43-0.06-5.19-0.35-7.14-1.58c-1.69-1.06-3.42-3.58-3.46-5.49
		c-0.3-13.36-0.11-26.72-0.19-40.08c-0.02-2.9,1.24-4.89,3.72-5.9c2.04-0.83,4.31-1.49,6.49-1.51c15.36-0.13,30.72-0.09,46.08-0.04
		c1.6,0.01,3.25,0.29,4.79,0.74c4.16,1.21,5.64,3.27,5.65,7.62c0.02,12.24,0.01,24.48,0.01,36.72c0,6.68-2.54,9.4-9.48,9.55
		c-7.99,0.17-15.98,0.04-23.98,0.04C102.18,82.04,102.18,82.05,102.18,82.05z"/>
	<path class="st0" d="M114.78,150.07c-14.86,0-29.71,0-44.57-0.01c-1.24,0-2.52,0.05-3.73-0.2c-3.13-0.65-5.13-3.38-4.97-6.56
		c0.16-3.17,2.43-5.52,5.71-5.86c0.87-0.09,1.75-0.05,2.62-0.05c29.96,0,59.93,0,89.89,0c0.75,0,1.5-0.03,2.25,0.03
		c3.45,0.3,5.83,2.77,5.91,6.07c0.07,3.29-2.2,6-5.54,6.48c-1.1,0.16-2.24,0.09-3.37,0.09
		C144.24,150.08,129.51,150.07,114.78,150.07z"/>
	<path class="st0" d="M114.84,169.68c14.98,0,29.96-0.01,44.94,0.02c1.36,0,2.84-0.06,4.05,0.42c3.01,1.21,4.48,3.63,3.94,6.86
		c-0.57,3.39-2.81,5.28-6.24,5.32c-7.86,0.1-15.73,0.04-23.6,0.05c-22.22,0-44.44,0-66.67,0c-1.12,0-2.25,0.04-3.37-0.03
		c-3.91-0.25-6.42-2.79-6.4-6.4c0.03-3.61,2.56-6.17,6.53-6.21c9.99-0.09,19.97-0.04,29.96-0.04
		C103.61,169.67,109.23,169.68,114.84,169.68z"/>
</g>
</svg>
