<?xml version="1.0" encoding="utf-8"?>
<!-- Generator: Adobe Illustrator 24.1.3, SVG Export Plug-In . SVG Version: 6.00 Build 0)  -->
<svg version="1.1" id="Layer_1" xmlns="http://www.w3.org/2000/svg" xmlns:xlink="http://www.w3.org/1999/xlink" x="0px" y="0px"
	 viewBox="0 0 147.71 147.84" style="enable-background:new 0 0 147.71 147.84;" xml:space="preserve">
<g>
	<path d="M5.59,93.46c3.8-0.74,7.5-1.47,11.63-2.27c0.67-1.4,1.43-3,2.23-4.7c-2.33-3.42-4.56-6.69-6.98-10.25
		c3.64-3.26,7.19-6.43,11.08-9.9c2.64,1.9,5.84,4.2,9.47,6.8c1.44-0.63,3.05-1.33,4.62-2.03c0.72-4.12,1.4-7.99,2.09-11.94
		c4.95,0,9.54,0,14.49,0c0.69,3.97,1.37,7.83,2.07,11.88c1.47,0.67,2.94,1.33,4.56,2.07c3.44-2.42,6.8-4.79,10.42-7.33
		c3.27,3.44,6.44,6.77,10.28,10.8c0.99-3.76,1.79-6.8,2.65-10.07c-1.01-1.16-1.95-2.24-2.91-3.35c-3.76,0.68-7.31,1.33-11.43,2.07
		c-1.66-4.17-3.28-8.26-5.07-12.78c3.2-2.03,6.37-4.04,9.7-6.15c0-1.45,0-2.88,0-4.51c-2.91-2.02-5.88-4.08-9.31-6.47
		c1.68-4.06,3.36-8.1,5.24-12.65c3.75,0.72,7.41,1.42,11.71,2.24c0.7-0.78,1.56-1.74,2.38-2.64c-0.7-4.03-1.34-7.73-2.02-11.68
		c4.26-1.68,8.22-3.24,12.7-5.01c2.03,3.2,4.03,6.34,6.1,9.6c1.5,0,2.94,0,4.61,0c1.94-2.97,3.91-5.98,6.15-9.41
		c4.25,1.84,8.28,3.59,12.66,5.48c-0.72,3.73-1.41,7.26-2.17,11.16c0.81,0.88,1.78,1.93,2.83,3.07c3.86-0.79,7.55-1.54,11.63-2.36
		c1.67,4.22,3.28,8.32,5.04,12.77c-3.25,2.13-6.4,4.18-9.6,6.28c0,1.52,0,2.98,0,4.46c3.17,2,6.22,3.93,9.66,6.1
		c-1.83,4.31-3.61,8.48-5.49,12.89c-3.82-0.92-7.33-1.76-11.2-2.7c-0.93,0.81-2.01,1.74-3.27,2.82c0.75,3.97,1.48,7.83,2.31,12.23
		c-4.04,1.67-8.08,3.35-12.6,5.22c-2.22-3.34-4.38-6.59-6.58-9.9c-1.36,0-2.65,0-4.15,0c-2.15,3.1-4.3,6.19-6.61,9.53
		c-4.42-1.83-8.66-3.59-13.4-5.55c-2.19,3.03-4.47,6.16-6.81,9.39c0.69,1.68,1.31,3.16,1.95,4.72c4.03,0.66,7.91,1.3,12.09,1.99
		c0,4.85,0,9.54,0,14.56c-3.92,0.75-7.78,1.49-11.89,2.28c-0.68,1.41-1.38,2.85-2.22,4.58c2.37,3.41,4.71,6.76,7.15,10.27
		c-3.54,3.46-6.94,6.78-10.52,10.29c-3.16-2.25-6.38-4.54-9.84-7c-1.44,0.55-2.94,1.13-4.73,1.82c-0.83,3.98-1.66,7.96-2.51,12.04
		c-4.84,0-9.43,0-14.34,0c-0.7-3.96-1.37-7.81-2.08-11.82c-1.52-0.71-2.98-1.4-4.63-2.17c-3.32,2.26-6.59,4.47-10.14,6.88
		c-3.24-3.6-6.41-7.13-9.92-11.02c1.83-2.51,4.15-5.68,6.72-9.2c-0.69-1.53-1.41-3.12-2.11-4.66c-4.02-0.79-7.72-1.51-11.71-2.29
		C5.59,103.26,5.59,98.7,5.59,93.46z M72.09,96.7c-1.55-3.68-2.95-7.02-4.5-10.7c1.86-2.72,3.9-5.69,6.03-8.81
		c-1.04-1.32-2.01-2.55-2.93-3.72c-3.61,2.57-6.42,4.57-9,6.41c-3.86-1.65-7.32-3.12-10.74-4.58c-0.62-3.46-1.2-6.7-1.85-10.29
		c-1.54,0.09-2.91,0.16-4.29,0.24c-0.71,3.8-1.34,7.18-1.88,10.07c-3.84,1.61-7.17,3.01-10.73,4.51c-2.8-1.97-5.73-4.02-8.84-6.2
		c-1.19,1.39-2.1,2.47-2.98,3.49c2.11,3.19,4.01,6.07,5.75,8.7c-1.68,3.84-3.18,7.29-4.64,10.6c-3.5,0.71-6.72,1.37-10.23,2.09
		c0.07,1.59,0.13,2.99,0.2,4.47c3.7,0.74,7.07,1.42,10.07,2.03c1.65,3.86,3.13,7.32,4.6,10.74c-2.1,2.9-4.1,5.67-6.26,8.65
		c1.41,1.17,2.49,2.06,3.51,2.91c3.21-2.13,6.08-4.03,8.67-5.75c3.89,1.68,7.33,3.17,10.65,4.6c0.64,3.52,1.22,6.74,1.86,10.27
		c1.61-0.07,2.99-0.14,4.37-0.2c0.78-3.77,1.47-7.15,2.09-10.12c3.77-1.59,7.1-3,10.64-4.49c2.82,1.94,5.77,3.96,8.92,6.12
		c1.14-1.3,2.07-2.37,2.97-3.4c-2.17-3.13-4.14-5.97-6-8.65c1.6-3.79,3.06-7.25,4.52-10.7c3.54-0.68,6.92-1.33,10.62-2.05
		c-0.1-1.61-0.19-2.99-0.28-4.39C78.63,97.87,75.23,97.26,72.09,96.7z M126.42,38.78c2.45-1.53,5.2-3.24,8.22-5.12
		c-0.6-1.32-1.1-2.42-1.63-3.58c-4.5,0.61-4.5,0.61-8.28,1.12c-0.33-0.19-0.33-0.19-0.68-0.44c-2.72-2.13-5.45-4.26-8.11-6.34
		c0.63-3.2,1.23-6.25,1.9-9.61c-1.42-0.46-2.55-0.83-3.66-1.19c-1.83,2.78-3.45,5.24-5.02,7.64c-3.87,0-7.49,0-11.11,0
		c-1.82-2.81-3.59-5.53-5.45-8.4c-1.39,0.81-2.33,1.36-3.28,1.91c0.55,3.17,1.06,6.08,1.59,9.13c-2.43,2.57-4.79,5.06-7.18,7.58
		c-3.29-0.67-6.32-1.29-9.62-1.97c-0.52,1.35-0.97,2.49-1.44,3.71c2.82,1.96,5.38,3.73,7.85,5.44c0,3.81,0,7.41,0,10.92
		c-2.76,1.81-5.35,3.52-8.11,5.33c0.48,1.24,0.87,2.23,1.32,3.38c3.47-0.53,6.67-1.02,8.79-1.34c3.15,2.9,5.57,5.13,8.15,7.5
		c-0.62,2.93-1.26,5.97-1.98,9.43c1.39,0.48,2.66,0.91,3.89,1.33c2.05-2.97,3.81-5.53,5.33-7.72c4.02,0,7.45,0,10.94,0
		c1.75,2.73,3.42,5.35,5.25,8.2c1.26-0.54,2.37-1.01,3.52-1.5c-0.7-3.7-1.33-7.07-1.7-9.02c3.04-3.32,5.36-5.87,7.93-8.67
		c2.7,0.59,5.89,1.29,9.24,2.02c0.54-1.23,0.97-2.21,1.45-3.32c-2.86-1.87-5.47-3.58-8.1-5.3
		C126.42,46.29,126.42,42.84,126.42,38.78z"/>
	<path d="M61.85,100.59c0.04,8.06-6.72,14.92-14.78,15c-8.03,0.08-14.91-6.71-14.98-14.78c-0.08-8.04,6.72-14.94,14.77-14.99
		C54.93,85.78,61.81,92.56,61.85,100.59z M55.87,100.66c-0.02-4.8-4.02-8.81-8.82-8.86c-4.79-0.05-8.86,3.9-8.98,8.7
		c-0.12,4.99,4.08,9.21,9.07,9.11C51.93,109.52,55.9,105.45,55.87,100.66z"/>
	<path d="M118.46,44.81c-0.41,8.07-7.57,14.56-15.6,14.15c-8.06-0.41-14.52-7.53-14.14-15.6c0.38-8.03,7.58-14.56,15.59-14.14
		C112.39,29.63,118.87,36.78,118.46,44.81z M112.5,44.28c0.11-4.82-3.76-8.92-8.58-9.1c-4.81-0.18-8.97,3.64-9.22,8.45
		c-0.26,5.01,3.8,9.31,8.82,9.36C108.33,53.03,112.39,49.1,112.5,44.28z"/>
</g>
</svg>
