<?xml version="1.0" encoding="utf-8"?>
<!-- Generator: Adobe Illustrator 24.1.3, SVG Export Plug-In . SVG Version: 6.00 Build 0)  -->
<svg version="1.1" id="Layer_1" xmlns="http://www.w3.org/2000/svg" xmlns:xlink="http://www.w3.org/1999/xlink" x="0px" y="0px"
	 viewBox="0 0 105.62 105.65" style="enable-background:new 0 0 105.62 105.65;" xml:space="preserve">
<style type="text/css">
	.st0{fill:#666666;}
</style>
<g>
	<path class="st0" d="M29.88,58.86c7.33,0.08,12.24,1.6,16.19,5.73c3.43,3.59,7.17,4.36,11.43,1.12c2.37-1.8,5.03-3.23,7.59-4.76
		c2.02-1.2,4.41-2.66,6.55-1.89c5.09,1.83,10.85,0.86,15.54,3.77c1.6,0.99,2.78,0.38,4.19,0.25c2.87-0.27,5.26,0.58,6.69,3.28
		c1.5,2.83,0.38,5.16-1.53,7.23c-0.89,0.97-1.95,1.82-3.06,2.53c-10.32,6.68-20.7,13.27-30.99,20c-4.93,3.22-9.89,3.5-15.1,0.92
		c-5.05-2.51-10.21-4.83-15.12-7.59c-3.45-1.94-6.37-2.12-9.63,0.33c-1.53,1.15-3.87,3.84-5.47,1.38c-1.87-2.88,1.96-3.46,3.56-4.8
		c4.09-3.45,8.3-3.33,12.9-0.74c4.91,2.77,10.06,5.12,15.1,7.64c3.64,1.83,7.22,2.22,10.87-0.14c10.6-6.86,21.27-13.61,31.84-20.51
		c1.53-1,4.02-2.27,2.8-4.51c-1.28-2.33-3.77-0.92-5.35-0.02c-4.61,2.63-9.46,5.11-13.42,8.55c-8.8,7.65-18.99,6.72-29.29,5.8
		c-2.13-0.19-4.23-0.86-6.34-1.3c-1.51-0.32-3.3-0.69-2.82-2.67c0.44-1.87,2.2-1.72,3.72-1.28c6.49,1.91,13.15,1.74,19.81,1.67
		c1-0.01,2.02,0.05,2.99-0.13c1.5-0.28,3.06-0.82,3.13-2.66c0.08-2.12-1.6-2.75-3.3-3.02c-1.3-0.21-2.66-0.07-3.99-0.18
		c-6.69-0.53-12.92-1.6-18.13-6.84c-4.56-4.59-10.77-3.84-16.46-1.83c-4.68,1.66-9.16,3.88-13.71,5.91
		c-1.42,0.63-2.92,1.48-3.88-0.36c-1.01-1.95,0.68-2.64,2.06-3.21C16.54,63.49,23.39,59.07,29.88,58.86z M83.92,66
		c-5.97-1.32-9.42,2.97-13.73,5.18c-0.75,0.38-0.5,1.46,0.01,2.22c0.56,0.85,1.23,0.94,2.05,0.38C76.14,71.18,80.03,68.59,83.92,66z
		 M60.33,68.44c6.54,1.85,9.66-2.06,14.27-5.03C68.33,62.14,65.16,66.05,60.33,68.44z"/>
	<path class="st0" d="M35.24,41.48c-0.22-2.87-2.29-3.16-4.01-3.23c-3.75-0.15-4.5-2.02-4.55-5.46c-0.05-3.53,1.06-5.02,4.54-5.58
		c4.93-0.79,5.41-1.92,2.3-6.01c-2.17-2.85-1.38-4.48,0.84-6.65c2.28-2.23,3.99-3.44,7.09-0.99c3.92,3.1,5.45,2.51,6.03-2.43
		c0.47-4.02,2.58-4.16,5.73-4.26c3.3-0.11,4.72,0.97,5.28,4.26c0.89,5.3,1.81,5.69,6.23,2.35c2.73-2.07,4.28-1.28,6.25,0.83
		c1.99,2.14,3.97,3.69,1.34,7.03c-3.37,4.27-2.83,5.6,2.47,6.26c3.73,0.46,4.12,2.3,4.08,5.32c-0.04,2.89-0.13,4.95-3.9,5.55
		c-5.81,0.92-6.14,1.8-2.66,6.4c2.09,2.76,1.18,4.29-0.89,6.24c-2.14,2.02-3.69,3.93-7.03,1.28c-4.45-3.52-5.5-3.07-6.23,2.51
		c-0.48,3.72-2.35,3.94-5.33,4.11c-3.5,0.2-5.06-0.88-5.64-4.43c-0.82-5.02-2.01-5.56-5.96-2.48c-3.07,2.4-4.72,1.31-7.06-0.94
		c-2.55-2.45-3.05-4.45-0.52-7.08C34.41,43.3,34.83,42.17,35.24,41.48z M67.17,49.11c2.74-1.23,1.15-2.57,0.3-3.94
		c-2.8-4.49-0.87-9.21,4.17-10.29c1.21-0.26,3.03,0.14,3.04-1.77c0.01-2.22-2.1-1.67-3.38-1.99c-4.24-1.07-6.34-6.05-4.14-9.77
		c0.67-1.13,2.74-2.11,1.17-3.75c-1.61-1.68-2.61,0.4-3.73,1.06c-3.79,2.23-8.89,0.08-9.8-4.21c-0.28-1.31,0.39-3.37-1.9-3.39
		c-1.92-0.02-1.53,1.88-1.84,3.01c-1.36,4.97-5.92,6.78-10.37,4.06c-1.02-0.62-1.96-2.17-3.37-0.64c-1.2,1.3,0.21,2.1,0.72,2.99
		c2.78,4.81,0.88,9.37-4.44,10.51c-1.09,0.23-2.54-0.01-2.72,1.56c-0.24,2.06,1.63,1.76,2.75,2.07c5.37,1.5,7.13,5.82,4.24,10.57
		c-0.55,0.91-1.85,1.66-0.77,2.99c1.13,1.39,2.03,0.24,2.97-0.3c5.51-3.1,9.15-1.5,10.9,4.81c0.26,0.94,0.26,2.06,1.6,2.15
		c1.76,0.12,1.59-1.37,1.88-2.39c1.71-6.06,5.35-7.49,11.08-4.32C66.12,48.47,66.67,48.82,67.17,49.11z"/>
	<path class="st0" d="M62.73,33.04c0,5.57-4.63,10.05-10.27,9.93c-5.45-0.12-9.69-4.47-9.69-9.94c0-5.4,4.33-9.87,9.7-10
		C57.97,22.89,62.73,27.53,62.73,33.04z M52.6,39.06c3.55-0.31,5.92-2.18,6.06-5.82c0.14-3.65-2.08-6.01-5.71-6.13
		c-3.61-0.12-5.97,1.97-6.11,5.7C46.68,36.55,48.92,38.48,52.6,39.06z"/>
</g>
</svg>
